<?xml version="1.0" encoding="UTF-8"?>
<svg width="18px" height="18px" viewBox="0 0 18 18" version="1.1" xmlns="http://www.w3.org/2000/svg" xmlns:xlink="http://www.w3.org/1999/xlink">
    <title>checkbox-true</title>
    <g id="checkbox-true" stroke="none" stroke-width="1" fill="none" fill-rule="evenodd">
        <path d="M5.1277704,-2.07168062e-16 L12.8722296,2.07168062e-16 C14.6552671,-1.2037061e-16 15.3018396,0.185651222 15.9536914,0.534265408 C16.6055433,0.882879593 17.1171204,1.39445674 17.4657346,2.04630859 C17.8143488,2.69816044 18,3.34473292 18,5.1277704 L18,12.8722296 C18,14.6552671 17.8143488,15.3018396 17.4657346,15.9536914 C17.1171204,16.6055433 16.6055433,17.1171204 15.9536914,17.4657346 C15.3018396,17.8143488 14.6552671,18 12.8722296,18 L5.1277704,18 C3.34473292,18 2.69816044,17.8143488 2.04630859,17.4657346 C1.39445674,17.1171204 0.882879593,16.6055433 0.534265408,15.9536914 C0.185651222,15.3018396 8.02470732e-17,14.6552671 -1.38112041e-16,12.8722296 L1.38112041e-16,5.1277704 C-8.02470732e-17,3.34473292 0.185651222,2.69816044 0.534265408,2.04630859 C0.882879593,1.39445674 1.39445674,0.882879593 2.04630859,0.534265408 C2.69816044,0.185651222 3.34473292,1.2037061e-16 5.1277704,-2.07168062e-16 Z" id="Rectangle" fill="#001E3D"></path>
        <polyline id="Path-2" stroke="#FFFFFF" stroke-width="2" points="3 9 7 13 15 5"></polyline>
    </g>
</svg>