<?xml version="1.0" encoding="UTF-8"?>
<svg width="170px" height="72px" viewBox="0 0 170 72" version="1.1" xmlns="http://www.w3.org/2000/svg" xmlns:xlink="http://www.w3.org/1999/xlink">
<title>Group 2</title>
<g id="Pages" stroke="none" stroke-width="1" fill="none" fill-rule="evenodd">
<g id="EventEditor" transform="translate(-227.000000, -96.000000)" fill="#8E97C9" fill-rule="nonzero">
<g id="Group" transform="translate(22.000000, 22.000000)">
<g id="Group-2" transform="translate(205.258524, 74.000000)">
<path d="M77.9988232,35.8830764 L101.041993,35.8830764 C102.556556,35.8830764 103.704618,35.5010291 104.486176,34.7369344 C105.267735,33.9728397 105.658514,32.8342781 105.658514,31.3212497 L105.658514,30.2702476 L97.5706058,22.6590468 C97.2437809,22.3456557 96.8784778,22.1106124 96.4746965,21.9539168 C96.0709152,21.7972213 95.662624,21.7188735 95.2498229,21.7188735 C94.8281938,21.7188735 94.4263316,21.791368 94.0442363,21.936357 C93.662141,22.0813459 93.2904089,22.3166771 92.9290399,22.6423505 L85.9854025,28.7839908 L83.2190016,26.2904877 C82.8944796,25.9905304 82.5564759,25.7682972 82.2049904,25.623788 C81.8535049,25.4792788 81.4959263,25.4070242 81.1322544,25.4070242 C80.7929553,25.4070242 80.4614766,25.4792788 80.1378182,25.623788 C79.8141599,25.7682972 79.4845043,25.9843893 79.1488515,26.2720643 L73.3987102,31.2875693 C73.3987102,32.8293844 73.7855073,33.980756 74.5591016,34.7416842 C75.3326959,35.5026123 76.4792698,35.8830764 77.9988232,35.8830764 Z M84.7841339,23.0203198 C85.7989607,23.0203198 86.6641446,22.6569838 87.3796858,21.9303118 C88.0952269,21.2036398 88.4529975,20.3329863 88.4529975,19.3183515 C88.4529975,18.3148474 88.0952269,17.4525421 87.3796858,16.7314356 C86.6641446,16.010329 85.7989607,15.6497757 84.7841339,15.6497757 C83.769499,15.6497757 82.904411,16.010329 82.1888699,16.7314356 C81.4733287,17.4525421 81.1155581,18.3148474 81.1155581,19.3183515 C81.1155581,20.3329863 81.4733287,21.2036398 82.1888699,21.9303118 C82.904411,22.6569838 83.769499,23.0203198 84.7841339,23.0203198 Z M65.3499517,26.9191891 C65.6740898,28.7223873 66.3747578,29.9981654 67.4519558,30.7465234 C68.5291537,31.4948814 69.9859521,31.7125568 71.822351,31.3995495 L74.1039841,30.9913542 L74.1039841,27.8213639 L71.4083984,28.2813752 C70.5929675,28.4228138 69.923533,28.3178863 69.400095,27.9665928 C68.876657,27.6152992 68.5380776,27.0073723 68.3843566,26.142812 L65.600108,10.3507218 C65.4452356,9.48501009 65.550451,8.79436942 65.9157541,8.2787998 C66.2810571,7.76323018 66.8781411,7.43415034 67.7070058,7.29156027 L90.71851,3.24846967 C91.5350925,3.1058796 92.2048148,3.21051922 92.727677,3.56238853 C93.2505393,3.91425783 93.5838412,4.52247261 93.7275827,5.38703287 L94.6257274,10.3449645 L97.7954299,10.3449645 L96.778684,4.60864077 C96.4533944,2.81791675 95.7493679,1.54530516 94.6666045,0.79080602 C93.5838412,0.0363068769 92.1298255,-0.178297896 90.3045574,0.1469917 L67.0305186,4.2387318 C65.2052506,4.5640214 63.9098015,5.26555303 63.1441715,6.3433267 C62.3785415,7.42110038 62.1577956,8.86091465 62.4819337,10.6627695 L65.3499517,26.9191891 Z M77.7495305,37 L101.542018,37 C103.39185,37 104.788245,36.5343753 105.731201,35.6031259 C106.674157,34.6718765 107.145635,33.2924662 107.145635,31.4648953 L107.145635,14.9655161 C107.145635,13.1377532 106.674157,11.7580071 105.731201,10.8262779 C104.788245,9.89454873 103.39185,9.42868413 101.542018,9.42868413 L77.7495305,9.42868413 C75.8876074,9.42868413 74.4882384,9.89454873 73.5514236,10.8262779 C72.6146087,11.7580071 72.1462013,13.1377532 72.1462013,14.9655161 L72.1462013,31.4648953 C72.1462013,33.3035971 72.6146087,34.68579 73.5514236,35.611474 C74.4882384,36.537158 75.8876074,37 77.7495305,37 Z M77.8736011,33.8723261 C77.0336055,33.8723261 76.3900311,33.6526837 75.9428778,33.2133988 C75.4957246,32.7741139 75.2721479,32.1160502 75.2721479,31.2392076 L75.2721479,15.1909159 C75.2721479,14.3140733 75.4957246,13.6557217 75.9428778,13.2158611 C76.3900311,12.7760004 77.0336055,12.5560701 77.8736011,12.5560701 L101.418235,12.5560701 C102.245948,12.5560701 102.886164,12.7760004 103.338883,13.2158611 C103.791601,13.6557217 104.017961,14.3140733 104.017961,15.1909159 L104.017961,31.2392076 C104.017961,32.1160502 103.791601,32.7741139 103.338883,33.2133988 C102.886164,33.6526837 102.245948,33.8723261 101.418235,33.8723261 L77.8736011,33.8723261 Z" id="Shape"></path>
<g id="Drag-and-Drop-an-Ima" transform="translate(0.000000, 60.272713)">
<path d="M3.09375516,8.72728729 C5.75285051,8.72728729 7.36364865,7.08239818 7.36364865,4.3551209 C7.36364865,1.63636637 5.75285051,0 3.11932339,0 L0,0 L0,8.72728729 L3.09375516,8.72728729 Z M1.84517353,7.14631874 L1.84517353,1.58096855 L3.02131186,1.58096855 C4.65767823,1.58096855 5.52273649,2.41619721 5.52273649,4.3551209 C5.52273649,6.30256734 4.65767823,7.14631874 3.01705049,7.14631874 L1.84517353,7.14631874 Z" id="Shape"></path>
<path d="M8.69318176,8.72728729 L10.5085257,8.72728729 L10.5085257,5.02415611 C10.5085257,4.21875704 11.0965949,3.66477884 11.8977326,3.66477884 C12.1491534,3.66477884 12.4943245,3.70739255 12.6647793,3.76279037 L12.6647793,2.15199223 C12.5028472,2.11363989 12.2769946,2.08807167 12.0937556,2.08807167 C11.3607998,2.08807167 10.7599466,2.51420874 10.5213098,3.32386918 L10.4531279,3.32386918 L10.4531279,2.18182182 L8.69318176,2.18182182 L8.69318176,8.72728729 Z" id="Path"></path>
<path d="M15.2812531,8.85086704 C16.2485842,8.85086704 16.8750057,8.42899134 17.1946085,7.81961532 L17.245745,7.81961532 L17.245745,8.72728729 L18.9673388,8.72728729 L18.9673388,4.3125072 C18.9673388,2.7528455 17.6463138,2.09659441 16.188925,2.09659441 C14.6207406,2.09659441 13.5894889,2.84659566 13.338068,4.03977947 L15.0170481,4.17614333 C15.1406278,3.74148352 15.5284126,3.42188071 16.1804023,3.42188071 C16.798301,3.42188071 17.1519948,3.73296078 17.1519948,4.26989349 L17.1519948,4.29546171 C17.1519948,4.71733742 16.7045509,4.77273524 15.5667649,4.88353088 C14.2713082,5.00284926 13.107954,5.43750907 13.107954,6.89915924 C13.107954,8.19461595 14.0326714,8.85086704 15.2812531,8.85086704 Z M15.8011403,7.59802404 C15.2429007,7.59802404 14.8423319,7.33808043 14.8423319,6.83950005 C14.8423319,6.32813556 15.2642076,6.07671469 15.9034132,5.9872259 C16.2997207,5.93182808 16.947449,5.83807793 17.1647789,5.69319132 L17.1647789,6.38779475 C17.1647789,7.07387544 16.5980166,7.59802404 15.8011403,7.59802404 Z" id="Shape"></path>
<path d="M23.3267094,11.3182007 C25.1974512,11.3182007 26.5269988,10.4659266 26.5269988,8.79120785 L26.5269988,2.18182182 L24.724439,2.18182182 L24.724439,3.28125548 L24.6562571,3.28125548 C24.413359,2.74858413 23.8806876,2.09659441 22.7855153,2.09659441 C21.3494334,2.09659441 20.1349427,3.21307354 20.1349427,5.44177045 C20.1349427,7.6193309 21.3153424,8.63353714 22.7897767,8.63353714 C23.8338125,8.63353714 24.4176203,8.10938853 24.6562571,7.56819445 L24.7329618,7.56819445 L24.7329618,8.76563963 C24.7329618,9.66478886 24.1576767,10.0142213 23.3693231,10.0142213 C22.5681854,10.0142213 22.1633552,9.66478886 22.0142072,9.26848138 L20.3352271,9.49433403 C20.5525571,10.5255857 21.5625019,11.3182007 23.3267094,11.3182007 Z M23.3650617,7.2698985 C22.4744353,7.2698985 21.988639,6.56251095 21.988639,5.4332477 C21.988639,4.32102994 22.4659125,3.54119909 23.3650617,3.54119909 C24.2471655,3.54119909 24.7414845,4.28693897 24.7414845,5.4332477 C24.7414845,6.58807918 24.2386428,7.2698985 23.3650617,7.2698985 Z" id="Shape"></path>
<path d="M32.6250031,8.85086704 C33.5923342,8.85086704 34.2187557,8.42899134 34.5383585,7.81961532 L34.589495,7.81961532 L34.589495,8.72728729 L36.3110888,8.72728729 L36.3110888,4.3125072 C36.3110888,2.7528455 34.9900638,2.09659441 33.532675,2.09659441 C31.9644906,2.09659441 30.9332389,2.84659566 30.681818,4.03977947 L32.3607981,4.17614333 C32.4843778,3.74148352 32.8721626,3.42188071 33.5241523,3.42188071 C34.142051,3.42188071 34.4957448,3.73296078 34.4957448,4.26989349 L34.4957448,4.29546171 C34.4957448,4.71733742 34.0483009,4.77273524 32.9105149,4.88353088 C31.6150582,5.00284926 30.451704,5.43750907 30.451704,6.89915924 C30.451704,8.19461595 31.3764214,8.85086704 32.6250031,8.85086704 Z M33.1448903,7.59802404 C32.5866507,7.59802404 32.1860819,7.33808043 32.1860819,6.83950005 C32.1860819,6.32813556 32.6079576,6.07671469 33.2471632,5.9872259 C33.6434707,5.93182808 34.291199,5.83807793 34.5085289,5.69319132 L34.5085289,6.38779475 C34.5085289,7.07387544 33.9417666,7.59802404 33.1448903,7.59802404 Z" id="Shape"></path>
<path d="M39.5369348,4.94319007 C39.5411962,4.09943866 40.0440379,3.60511965 40.7769937,3.60511965 C41.5056881,3.60511965 41.9446093,4.08239318 41.9403479,4.88353088 L41.9403479,8.72728729 L43.7556918,8.72728729 L43.7556918,4.5596667 C43.7556918,3.03409597 42.860804,2.09659441 41.4971653,2.09659441 C40.5255728,2.09659441 39.8224466,2.57386793 39.528412,3.3366533 L39.4517074,3.3366533 L39.4517074,2.18182182 L37.7215909,2.18182182 L37.7215909,8.72728729 L39.5369348,8.72728729 L39.5369348,4.94319007 Z" id="Path"></path>
<path d="M47.5951744,8.83382156 C48.6519944,8.83382156 49.2017112,8.22444554 49.4531321,7.67899009 L49.5298367,7.67899009 L49.5298367,8.72728729 L51.3196125,8.72728729 L51.3196125,0 L49.5085299,0 L49.5085299,3.28125548 L49.4531321,3.28125548 C49.2102339,2.74858413 48.6860853,2.09659441 47.5909131,2.09659441 C46.1548311,2.09659441 44.9403404,3.21307354 44.9403404,5.4630773 C44.9403404,7.65342186 46.1036947,8.83382156 47.5951744,8.83382156 Z M48.1704595,7.38921688 C47.279833,7.38921688 46.7940367,6.59660192 46.7940367,5.45455456 C46.7940367,4.32102994 47.2713102,3.54119909 48.1704595,3.54119909 C49.0525632,3.54119909 49.5468822,4.28693897 49.5468822,5.45455456 C49.5468822,6.62217014 49.0440405,7.38921688 48.1704595,7.38921688 Z" id="Shape"></path>
<path d="M58.7173347,8.72728729 C61.3764301,8.72728729 62.9872282,7.08239818 62.9872282,4.3551209 C62.9872282,1.63636637 61.3764301,0 58.7429029,0 L55.6235795,0 L55.6235795,8.72728729 L58.7173347,8.72728729 Z M57.4687531,7.14631874 L57.4687531,1.58096855 L58.6448914,1.58096855 C60.2812578,1.58096855 61.146316,2.41619721 61.146316,4.3551209 C61.146316,6.30256734 60.2812578,7.14631874 58.64063,7.14631874 L57.4687531,7.14631874 Z" id="Shape"></path>
<path d="M64.3167613,8.72728729 L66.1321052,8.72728729 L66.1321052,5.02415611 C66.1321052,4.21875704 66.7201744,3.66477884 67.5213121,3.66477884 C67.772733,3.66477884 68.117904,3.70739255 68.2883588,3.76279037 L68.2883588,2.15199223 C68.1264268,2.11363989 67.9005741,2.08807167 67.7173352,2.08807167 C66.9843794,2.08807167 66.3835261,2.51420874 66.1448894,3.32386918 L66.0767074,3.32386918 L66.0767074,2.18182182 L64.3167613,2.18182182 L64.3167613,8.72728729 Z" id="Path"></path>
<path d="M71.872164,8.85512841 C73.8579627,8.85512841 75.0937603,7.49575115 75.0937603,5.48012278 C75.0937603,3.45171031 73.8579627,2.09659441 71.872164,2.09659441 C69.8863652,2.09659441 68.6505677,3.45171031 68.6505677,5.48012278 C68.6505677,7.49575115 69.8863652,8.85512841 71.872164,8.85512841 Z M71.8806867,7.44887607 C70.964492,7.44887607 70.4957412,6.60938603 70.4957412,5.46733867 C70.4957412,4.32529131 70.964492,3.4815399 71.8806867,3.4815399 C72.7798359,3.4815399 73.2485867,4.32529131 73.2485867,5.46733867 C73.2485867,6.60938603 72.7798359,7.44887607 71.8806867,7.44887607 Z" id="Shape"></path>
<path d="M76.278409,11.1818368 L78.093753,11.1818368 L78.093753,7.67899009 L78.1491508,7.67899009 C78.4005717,8.22444554 78.9502885,8.83382156 80.0071084,8.83382156 C81.4985882,8.83382156 82.6619424,7.65342186 82.6619424,5.4630773 C82.6619424,3.21307354 81.4474518,2.09659441 80.0113698,2.09659441 C78.9161975,2.09659441 78.3920489,2.74858413 78.1491508,3.28125548 L78.0681847,3.28125548 L78.0681847,2.18182182 L76.278409,2.18182182 L76.278409,11.1818368 Z M78.0554006,5.45455456 C78.0554006,4.28693897 78.5497196,3.54119909 79.4318234,3.54119909 C80.3309726,3.54119909 80.8082461,4.32102994 80.8082461,5.45455456 C80.8082461,6.59660192 80.3224499,7.38921688 79.4318234,7.38921688 C78.5582424,7.38921688 78.0554006,6.62217014 78.0554006,5.45455456 Z" id="Shape"></path>
<path d="M88.5170485,8.85086704 C89.4843797,8.85086704 90.1108012,8.42899134 90.430404,7.81961532 L90.4815404,7.81961532 L90.4815404,8.72728729 L92.2031342,8.72728729 L92.2031342,4.3125072 C92.2031342,2.7528455 90.8821093,2.09659441 89.4247205,2.09659441 C87.856536,2.09659441 86.8252843,2.84659566 86.5738635,4.03977947 L88.2528435,4.17614333 C88.3764233,3.74148352 88.764208,3.42188071 89.4161977,3.42188071 C90.0340965,3.42188071 90.3877903,3.73296078 90.3877903,4.26989349 L90.3877903,4.29546171 C90.3877903,4.71733742 89.9403463,4.77273524 88.8025604,4.88353088 C87.5071036,5.00284926 86.3437494,5.43750907 86.3437494,6.89915924 C86.3437494,8.19461595 87.2684669,8.85086704 88.5170485,8.85086704 Z M89.0369357,7.59802404 C88.4786962,7.59802404 88.0781273,7.33808043 88.0781273,6.83950005 C88.0781273,6.32813556 88.500003,6.07671469 89.1392086,5.9872259 C89.5355161,5.93182808 90.1832445,5.83807793 90.4005744,5.69319132 L90.4005744,6.38779475 C90.4005744,7.07387544 89.8338121,7.59802404 89.0369357,7.59802404 Z" id="Shape"></path>
<path d="M95.4289802,4.94319007 C95.4332416,4.09943866 95.9360834,3.60511965 96.6690391,3.60511965 C97.3977335,3.60511965 97.8366547,4.08239318 97.8323933,4.88353088 L97.8323933,8.72728729 L99.6477373,8.72728729 L99.6477373,4.5596667 C99.6477373,3.03409597 98.7528494,2.09659441 97.3892108,2.09659441 C96.4176183,2.09659441 95.7144921,2.57386793 95.4204575,3.3366533 L95.3437528,3.3366533 L95.3437528,2.18182182 L93.6136363,2.18182182 L93.6136363,8.72728729 L95.4289802,8.72728729 L95.4289802,4.94319007 Z" id="Path"></path>
<polygon id="Path" points="105.737219 0 103.892045 0 103.892045 8.72728729 105.737219 8.72728729"></polygon>
<path d="M107.224432,8.72728729 L109.039776,8.72728729 L109.039776,4.79830346 C109.039776,4.07387044 109.500004,3.59233554 110.105118,3.59233554 C110.70171,3.59233554 111.102279,4.00142713 111.102279,4.64489412 L111.102279,8.72728729 L112.862225,8.72728729 L112.862225,4.73012153 C112.862225,4.05256358 113.25001,3.59233554 113.910522,3.59233554 C114.490069,3.59233554 114.924729,3.95455205 114.924729,4.68324645 L114.924729,8.72728729 L116.735811,8.72728729 L116.735811,4.32529131 C116.735811,2.90625485 115.89206,2.09659441 114.673308,2.09659441 C113.714499,2.09659441 112.96876,2.58665204 112.700293,3.3366533 L112.632111,3.3366533 C112.423304,2.5781293 111.754269,2.09659441 110.85512,2.09659441 C109.973016,2.09659441 109.303981,2.56534519 109.031253,3.3366533 L108.954548,3.3366533 L108.954548,2.18182182 L107.224432,2.18182182 L107.224432,8.72728729 Z" id="Path"></path>
<path d="M120.034094,8.85086704 C121.001425,8.85086704 121.627847,8.42899134 121.947449,7.81961532 L121.998586,7.81961532 L121.998586,8.72728729 L123.72018,8.72728729 L123.72018,4.3125072 C123.72018,2.7528455 122.399155,2.09659441 120.941766,2.09659441 C119.373582,2.09659441 118.34233,2.84659566 118.090909,4.03977947 L119.769889,4.17614333 C119.893469,3.74148352 120.281253,3.42188071 120.933243,3.42188071 C121.551142,3.42188071 121.904836,3.73296078 121.904836,4.26989349 L121.904836,4.29546171 C121.904836,4.71733742 121.457392,4.77273524 120.319606,4.88353088 C119.024149,5.00284926 117.860795,5.43750907 117.860795,6.89915924 C117.860795,8.19461595 118.785512,8.85086704 120.034094,8.85086704 Z M120.553981,7.59802404 C119.995742,7.59802404 119.595173,7.33808043 119.595173,6.83950005 C119.595173,6.32813556 120.017048,6.07671469 120.656254,5.9872259 C121.052562,5.93182808 121.70029,5.83807793 121.91762,5.69319132 L121.91762,6.38779475 C121.91762,7.07387544 121.350858,7.59802404 120.553981,7.59802404 Z" id="Shape"></path>
<path d="M128.07955,11.3182007 C129.950292,11.3182007 131.27984,10.4659266 131.27984,8.79120785 L131.27984,2.18182182 L129.47728,2.18182182 L129.47728,3.28125548 L129.409098,3.28125548 C129.1662,2.74858413 128.633529,2.09659441 127.538356,2.09659441 C126.102274,2.09659441 124.887784,3.21307354 124.887784,5.44177045 C124.887784,7.6193309 126.068183,8.63353714 127.542618,8.63353714 C128.586653,8.63353714 129.170461,8.10938853 129.409098,7.56819445 L129.485803,7.56819445 L129.485803,8.76563963 C129.485803,9.66478886 128.910518,10.0142213 128.122164,10.0142213 C127.321026,10.0142213 126.916196,9.66478886 126.767048,9.26848138 L125.088068,9.49433403 C125.305398,10.5255857 126.315343,11.3182007 128.07955,11.3182007 Z M128.117903,7.2698985 C127.227276,7.2698985 126.74148,6.56251095 126.74148,5.4332477 C126.74148,4.32102994 127.218753,3.54119909 128.117903,3.54119909 C129.000006,3.54119909 129.494325,4.28693897 129.494325,5.4332477 C129.494325,6.58807918 128.991484,7.2698985 128.117903,7.2698985 Z" id="Shape"></path>
<path d="M135.711653,8.85512841 C137.330974,8.85512841 138.421884,8.06677483 138.677567,6.85228416 L136.998587,6.74148852 C136.815348,7.2400689 136.346597,7.50001252 135.741482,7.50001252 C134.83381,7.50001252 134.258525,6.89915924 134.258525,5.92330534 L134.258525,5.91904397 L138.715919,5.91904397 L138.715919,5.42046359 C138.715919,3.19602806 137.369326,2.09659441 135.639209,2.09659441 C133.71307,2.09659441 132.464488,3.46449442 132.464488,5.48438415 C132.464488,7.55967171 133.696024,8.85512841 135.711653,8.85512841 Z M134.258525,4.79404209 C134.296878,4.04830221 134.86364,3.45171031 135.669039,3.45171031 C136.457393,3.45171031 137.002848,4.01421124 137.007109,4.79404209 L134.258525,4.79404209 Z" id="Shape"></path>
<polygon id="Path" points="142.71733 8.72728729 144.562503 8.72728729 144.562503 5.12216764 148.308248 5.12216764 148.308248 8.72728729 150.14916 8.72728729 150.14916 0 148.308248 0 148.308248 3.60085828 144.562503 3.60085828 144.562503 0 142.71733 0"></polygon>
<path d="M154.619323,8.85512841 C156.238644,8.85512841 157.329555,8.06677483 157.585237,6.85228416 L155.906257,6.74148852 C155.723018,7.2400689 155.254267,7.50001252 154.649153,7.50001252 C153.741481,7.50001252 153.166196,6.89915924 153.166196,5.92330534 L153.166196,5.91904397 L157.623589,5.91904397 L157.623589,5.42046359 C157.623589,3.19602806 156.276996,2.09659441 154.54688,2.09659441 C152.62074,2.09659441 151.372159,3.46449442 151.372159,5.48438415 C151.372159,7.55967171 152.603695,8.85512841 154.619323,8.85512841 Z M153.166196,4.79404209 C153.204548,4.04830221 153.77131,3.45171031 154.576709,3.45171031 C155.365063,3.45171031 155.910518,4.01421124 155.91478,4.79404209 L153.166196,4.79404209 Z" id="Shape"></path>
<path d="M158.808239,8.72728729 L160.623583,8.72728729 L160.623583,5.02415611 C160.623583,4.21875704 161.211652,3.66477884 162.012789,3.66477884 C162.26421,3.66477884 162.609381,3.70739255 162.779836,3.76279037 L162.779836,2.15199223 C162.617904,2.11363989 162.392051,2.08807167 162.208812,2.08807167 C161.475857,2.08807167 160.875003,2.51420874 160.636367,3.32386918 L160.568185,3.32386918 L160.568185,2.18182182 L158.808239,2.18182182 L158.808239,8.72728729 Z" id="Path"></path>
<path d="M166.389209,8.85512841 C168.00853,8.85512841 169.099441,8.06677483 169.355124,6.85228416 L167.676143,6.74148852 C167.492904,7.2400689 167.024154,7.50001252 166.419039,7.50001252 C165.511367,7.50001252 164.936082,6.89915924 164.936082,5.92330534 L164.936082,5.91904397 L169.393476,5.91904397 L169.393476,5.42046359 C169.393476,3.19602806 168.046883,2.09659441 166.316766,2.09659441 C164.390627,2.09659441 163.142045,3.46449442 163.142045,5.48438415 C163.142045,7.55967171 164.373581,8.85512841 166.389209,8.85512841 Z M164.936082,4.79404209 C164.974434,4.04830221 165.541197,3.45171031 166.346596,3.45171031 C167.134949,3.45171031 167.680405,4.01421124 167.684666,4.79404209 L164.936082,4.79404209 Z" id="Shape"></path>
</g>
</g>
</g>
</g>
</g>
</svg>