<?xml version="1.0" encoding="UTF-8"?>
<svg width="580px" height="220px" viewBox="0 0 580 220" version="1.1" xmlns="http://www.w3.org/2000/svg" xmlns:xlink="http://www.w3.org/1999/xlink">
<title>Group</title>
<g id="Pages" stroke="none" stroke-width="1" fill="none" fill-rule="evenodd">
<g id="EventEditor" transform="translate(-22.000000, -22.000000)">
<g id="Group" transform="translate(22.000000, 22.000000)">
<path d="M6,0 L574,0 C577.313708,-6.08718376e-16 580,2.6862915 580,6 L580,214 C580,217.313708 577.313708,220 574,220 L6,220 C2.6862915,220 1.28403101e-14,217.313708 0,214 L0,6 C-4.05812251e-16,2.6862915 2.6862915,2.38507522e-15 6,0 Z" id="Rectangle" fill="#FFFFFF"></path>
<path d="M283.257347,109.883076 L306.300517,109.883076 C307.81508,109.883076 308.963142,109.501029 309.7447,108.736934 C310.526259,107.97284 310.917038,106.834278 310.917038,105.32125 L310.917038,104.270248 L302.82913,96.6590468 C302.502305,96.3456557 302.137002,96.1106124 301.733221,95.9539168 C301.329439,95.7972213 300.921148,95.7188735 300.508347,95.7188735 C300.086718,95.7188735 299.684856,95.791368 299.30276,95.936357 C298.920665,96.0813459 298.548933,96.3166771 298.187564,96.6423505 L291.243926,102.783991 L288.477526,100.290488 C288.153004,99.9905304 287.815,99.7682972 287.463514,99.623788 C287.112029,99.4792788 286.75445,99.4070242 286.390778,99.4070242 C286.051479,99.4070242 285.720001,99.4792788 285.396342,99.623788 C285.072684,99.7682972 284.743028,99.9843893 284.407375,100.272064 L278.657234,105.287569 C278.657234,106.829384 279.044031,107.980756 279.817626,108.741684 C280.59122,109.502612 281.737794,109.883076 283.257347,109.883076 Z M290.042658,97.0203198 C291.057485,97.0203198 291.922669,96.6569838 292.63821,95.9303118 C293.353751,95.2036398 293.711522,94.3329863 293.711522,93.3183515 C293.711522,92.3148474 293.353751,91.4525421 292.63821,90.7314356 C291.922669,90.010329 291.057485,89.6497757 290.042658,89.6497757 C289.028023,89.6497757 288.162935,90.010329 287.447394,90.7314356 C286.731853,91.4525421 286.374082,92.3148474 286.374082,93.3183515 C286.374082,94.3329863 286.731853,95.2036398 287.447394,95.9303118 C288.162935,96.6569838 289.028023,97.0203198 290.042658,97.0203198 Z M270.608476,100.919189 C270.932614,102.722387 271.633282,103.998165 272.71048,104.746523 C273.787678,105.494881 275.244476,105.712557 277.080875,105.399549 L279.362508,104.991354 L279.362508,101.821364 L276.666922,102.281375 C275.851491,102.422814 275.182057,102.317886 274.658619,101.966593 C274.135181,101.615299 273.796602,101.007372 273.642881,100.142812 L270.858632,84.3507218 C270.70376,83.4850101 270.808975,82.7943694 271.174278,82.2787998 C271.539581,81.7632302 272.136665,81.4341503 272.96553,81.2915603 L295.977034,77.2484697 C296.793616,77.1058796 297.463339,77.2105192 297.986201,77.5623885 C298.509063,77.9142578 298.842365,78.5224726 298.986107,79.3870329 L299.884251,84.3449645 L303.053954,84.3449645 L302.037208,78.6086408 C301.711918,76.8179167 301.007892,75.5453052 299.925129,74.790806 C298.842365,74.0363069 297.388349,73.8217021 295.563081,74.1469917 L272.289043,78.2387318 C270.463775,78.5640214 269.168326,79.265553 268.402696,80.3433267 C267.637066,81.4211004 267.41632,82.8609146 267.740458,84.6627695 L270.608476,100.919189 Z M283.008054,111 L306.800542,111 C308.650374,111 310.046769,110.534375 310.989725,109.603126 C311.932681,108.671876 312.404159,107.292466 312.404159,105.464895 L312.404159,88.9655161 C312.404159,87.1377532 311.932681,85.7580071 310.989725,84.8262779 C310.046769,83.8945487 308.650374,83.4286841 306.800542,83.4286841 L283.008054,83.4286841 C281.146131,83.4286841 279.746762,83.8945487 278.809948,84.8262779 C277.873133,85.7580071 277.404725,87.1377532 277.404725,88.9655161 L277.404725,105.464895 C277.404725,107.303597 277.873133,108.68579 278.809948,109.611474 C279.746762,110.537158 281.146131,111 283.008054,111 Z M283.132125,107.872326 C282.292129,107.872326 281.648555,107.652684 281.201402,107.213399 C280.754249,106.774114 280.530672,106.11605 280.530672,105.239208 L280.530672,89.1909159 C280.530672,88.3140733 280.754249,87.6557217 281.201402,87.2158611 C281.648555,86.7760004 282.292129,86.5560701 283.132125,86.5560701 L306.676759,86.5560701 C307.504472,86.5560701 308.144688,86.7760004 308.597407,87.2158611 C309.050125,87.6557217 309.276485,88.3140733 309.276485,89.1909159 L309.276485,105.239208 C309.276485,106.11605 309.050125,106.774114 308.597407,107.213399 C308.144688,107.652684 307.504472,107.872326 306.676759,107.872326 L283.132125,107.872326 Z" id="Shape" fill="#8E97C9" fill-rule="nonzero"></path>
<text id="Drag-and-Drop-an-Ima" font-family="KarasumaGothic-Bold, Karasuma Gothic" font-size="12" font-weight="bold" fill="#8E97C9">
<tspan x="204.5" y="143">Drag and Drop an Image Here</tspan>
</text>
</g>
</g>
</g>
</svg>