<?xml version="1.0" encoding="UTF-8"?>
<svg width="18px" height="15px" viewBox="0 0 18 15" version="1.1" xmlns="http://www.w3.org/2000/svg" xmlns:xlink="http://www.w3.org/1999/xlink">
<title>visibility-true</title>
<g id="visibility-true" stroke="none" stroke-width="1" fill="none" fill-rule="evenodd">
<g id="eye" transform="translate(2.000000, 2.727273)" fill="#000000" fill-rule="nonzero">
<path d="M7,2.86363636 C5.9456382,2.86363636 5.09090909,3.71836548 5.09090909,4.77272727 C5.09090909,5.82708907 5.9456382,6.68181818 7,6.68181818 C8.0543618,6.68181818 8.90909091,5.82708907 8.90909091,4.77272727 C8.90909091,3.71836548 8.0543618,2.86363636 7,2.86363636 M7,7.95454545 C5.24273034,7.95454545 3.81818182,6.52999693 3.81818182,4.77272727 C3.81818182,3.01545761 5.24273034,1.59090909 7,1.59090909 C8.75726966,1.59090909 10.1818182,3.01545761 10.1818182,4.77272727 C10.1818182,6.52999693 8.75726966,7.95454545 7,7.95454545 M7,0 C3.81818182,0 1.10090909,1.97909091 0,4.77272727 C1.10090909,7.56636364 3.81818182,9.54545455 7,9.54545455 C10.1818182,9.54545455 12.8990909,7.56636364 14,4.77272727 C12.8990909,1.97909091 10.1818182,0 7,0 Z" id="Shape"></path>
</g>
</g>
</svg>