<?xml version="1.0" encoding="UTF-8"?>
<svg width="18px" height="15px" viewBox="0 0 18 15" version="1.1" xmlns="http://www.w3.org/2000/svg" xmlns:xlink="http://www.w3.org/1999/xlink">
<title>visibility-false</title>
<g id="visibility-false" stroke="none" stroke-width="1" fill="none" fill-rule="evenodd">
<path d="M10.9090909,7.60181818 C10.9090909,7.57 10.9090909,7.53181818 10.9090909,7.5 C10.9090909,6.4456382 10.0543618,5.59090909 9,5.59090909 C8.96181818,5.59090909 8.93,5.59090909 8.89181818,5.59090909 L10.9090909,7.60181818 Z M7.14181818,7.08636364 C7.11,7.22 7.09090909,7.35363636 7.09090909,7.5 C7.09090909,8.5543618 7.9456382,9.40909091 9,9.40909091 C9.14,9.40909091 9.28,9.39 9.41363636,9.35818182 L10.4,10.3445455 C9.97363636,10.5545455 9.50272727,10.6818182 9,10.6818182 C7.24273034,10.6818182 5.81818182,9.25726966 5.81818182,7.5 C5.81818182,6.99727273 5.94545455,6.52636364 6.15545455,6.1 L7.14181818,7.08636364 Z M2.63636364,2.58090909 L4.08727273,4.03181818 L4.37363636,4.31818182 C3.32363636,5.14545455 2.49636364,6.22727273 2,7.5 C3.10090909,10.2936364 5.81818182,12.2727273 9,12.2727273 C9.98636364,12.2727273 10.9281818,12.0818182 11.7872727,11.7381818 L12.0609091,12.0054545 L13.9190909,13.8636364 L14.7272727,13.0554545 L3.44454545,1.77272727 M9,4.31818182 C10.7572697,4.31818182 12.1818182,5.74273034 12.1818182,7.5 C12.1818182,7.90727273 12.0990909,8.30181818 11.9527273,8.65818182 L13.8172727,10.5227273 C14.7718182,9.72727273 15.5354545,8.68363636 16,7.5 C14.8990909,4.70636364 12.1818182,2.72727273 9,2.72727273 C8.10909091,2.72727273 7.25636364,2.88636364 6.45454545,3.17272727 L7.83545455,4.54090909 C8.19818182,4.40090909 8.58636364,4.31818182 9,4.31818182 Z" id="Shape" fill="#000000" fill-rule="nonzero"></path>
</g>
</svg>