<?xml version="1.0" encoding="UTF-8"?>
<svg width="36px" height="36px" viewBox="0 0 36 36" version="1.1" xmlns="http://www.w3.org/2000/svg" xmlns:xlink="http://www.w3.org/1999/xlink">
    <title>attendees</title>
    <g id="attendees" stroke="none" stroke-width="1" fill="none" fill-rule="evenodd">
        <g id="􀉬" transform="translate(8.743164, 11.884766)" fill="#001E3D" fill-rule="nonzero">
            <path d="M8.95507812,12.5986328 L17.2539062,12.5986328 C17.9010417,12.5986328 18.3487956,12.4926758 18.597168,12.2807617 C18.8455404,12.0688477 18.9697266,11.7783203 18.9697266,11.4091797 C18.9697266,10.976237 18.8307292,10.5227865 18.5527344,10.0488281 C18.2747396,9.57486979 17.8782552,9.12939453 17.3632812,8.71240234 C16.8483073,8.29541016 16.2319336,7.95703125 15.5141602,7.69726562 C14.7963867,7.4375 13.9931641,7.30761719 13.1044922,7.30761719 C12.2203776,7.30761719 11.4182943,7.4375 10.6982422,7.69726562 C9.9781901,7.95703125 9.36067708,8.29541016 8.84570312,8.71240234 C8.33072917,9.12939453 7.93538411,9.57486979 7.65966797,10.0488281 C7.38395182,10.5227865 7.24609375,10.976237 7.24609375,11.4091797 C7.24609375,11.7783203 7.36914062,12.0688477 7.61523438,12.2807617 C7.86132812,12.4926758 8.30794271,12.5986328 8.95507812,12.5986328 Z M13.1113281,6.13867188 C13.639974,6.13867188 14.1184896,5.99967448 14.546875,5.72167969 C14.9752604,5.4436849 15.315918,5.0711263 15.5688477,4.60400391 C15.8217773,4.13688151 15.9482422,3.61621094 15.9482422,3.04199219 C15.9482422,2.4905599 15.820638,1.98470052 15.5654297,1.52441406 C15.3102214,1.0641276 14.9672852,0.694986979 14.5366211,0.416992188 C14.105957,0.138997396 13.6308594,0 13.1113281,0 C12.5826823,0 12.1030273,0.138997396 11.6723633,0.416992188 C11.2416992,0.694986979 10.8999023,1.06526693 10.6469727,1.52783203 C10.394043,1.99039714 10.2675781,2.49739583 10.2675781,3.04882812 C10.2675781,3.61848958 10.394043,4.13688151 10.6469727,4.60400391 C10.8999023,5.0711263 11.2416992,5.4436849 11.6723633,5.72167969 C12.1030273,5.99967448 12.5826823,6.13867188 13.1113281,6.13867188 Z M1.46972656,12.6123047 L6.37109375,12.6123047 C6.17057292,12.3343099 6.05436198,12.0107422 6.02246094,11.6416016 C5.9905599,11.2724609 6.03841146,10.8782552 6.16601562,10.4589844 C6.29361979,10.0397135 6.50211589,9.62044271 6.79150391,9.20117188 C7.08089193,8.78190104 7.44661458,8.38997396 7.88867188,8.02539062 C7.53320312,7.81575521 7.11621094,7.64257812 6.63769531,7.50585938 C6.15917969,7.36914062 5.64648438,7.30078125 5.09960938,7.30078125 C4.36132812,7.30078125 3.68115234,7.42041016 3.05908203,7.65966797 C2.43701172,7.89892578 1.89697266,8.21223958 1.43896484,8.59960938 C0.980957031,8.98697917 0.626627604,9.40738932 0.375976562,9.86083984 C0.125325521,10.3142904 0,10.757487 0,11.1904297 C0,11.632487 0.105957031,11.9799805 0.317871094,12.2329102 C0.529785156,12.4858398 0.913736979,12.6123047 1.46972656,12.6123047 Z M5.09960938,6.2890625 C5.55989583,6.2890625 5.97688802,6.16715495 6.35058594,5.92333984 C6.72428385,5.67952474 7.02164714,5.35481771 7.24267578,4.94921875 C7.46370443,4.54361979 7.57421875,4.09016927 7.57421875,3.58886719 C7.57421875,3.11035156 7.4625651,2.66943359 7.23925781,2.26611328 C7.01595052,1.86279297 6.71744792,1.54036458 6.34375,1.29882812 C5.97005208,1.05729167 5.55533854,0.936523438 5.09960938,0.936523438 C4.64388021,0.936523438 4.22802734,1.05843099 3.85205078,1.30224609 C3.47607422,1.5460612 3.17757161,1.86962891 2.95654297,2.27294922 C2.73551432,2.67626953 2.625,3.1171875 2.625,3.59570312 C2.62955729,4.09244792 2.74121094,4.54361979 2.95996094,4.94921875 C3.17871094,5.35481771 3.4749349,5.67952474 3.84863281,5.92333984 C4.22233073,6.16715495 4.63932292,6.2890625 5.09960938,6.2890625 Z" id="Shape"></path>
        </g>
    </g>
</svg>