<?xml version="1.0" encoding="UTF-8"?>
<svg width="280px" height="90px" viewBox="0 0 280 90" version="1.1" xmlns="http://www.w3.org/2000/svg" xmlns:xlink="http://www.w3.org/1999/xlink">
<title>Logo</title>
<g id="Logo" stroke="none" stroke-width="1" fill="none" fill-rule="evenodd">
<g id="Campus-Discovery" transform="translate(96.644641, 9.960183)" fill="#FFFFFF" fill-rule="nonzero">
<path d="M23.5611189,9.52416362 C22.8324245,3.47727853 18.2557123,0 12.1960431,0 C5.27983836,0 0,4.88353088 0,13.4488861 C0,21.9886731 5.19034957,26.8977722 12.1960431,26.8977722 C18.907702,26.8977722 22.9602656,22.436117 23.5611189,17.6165067 L17.9616777,17.5909384 C17.4375291,20.390659 15.2386618,22.0014572 12.2855319,22.0014572 C8.30967296,22.0014572 5.61222528,19.0483272 5.61222528,13.4488861 C5.61222528,8.00285427 8.27132062,4.89631499 12.3238842,4.89631499 C15.3537188,4.89631499 17.539802,6.64773837 17.9616777,9.52416362 L23.5611189,9.52416362 Z" id="Path"></path>
<path d="M33.0341009,26.9105563 C35.9360943,26.9105563 37.8153588,25.6449292 38.7741672,23.8168011 L38.9275766,23.8168011 L38.9275766,26.539817 L44.0923579,26.539817 L44.0923579,13.2954767 C44.0923579,8.61649165 40.1292831,6.64773837 35.7571168,6.64773837 C31.0525635,6.64773837 27.9588083,8.89774212 27.2045457,12.4772936 L32.2414859,12.8863851 C32.6122251,11.5824057 33.7755794,10.6235973 35.7315485,10.6235973 C37.5852448,10.6235973 38.6463261,11.5568375 38.6463261,13.1676356 L38.6463261,13.2443403 C38.6463261,14.5099674 37.3039943,14.6761609 33.8906364,15.0085478 C30.0042662,15.3665029 26.5142036,16.6704824 26.5142036,21.0554329 C26.5142036,24.941803 29.288356,26.9105563 33.0341009,26.9105563 Z M34.5937625,23.1520273 C32.9190438,23.1520273 31.7173373,22.3721964 31.7173373,20.8764553 C31.7173373,19.3423618 32.9829644,18.5880992 34.9005812,18.3196328 C36.0895037,18.1534394 38.0326887,17.8721889 38.6846785,17.4375291 L38.6846785,19.5213394 C38.6846785,21.5795815 36.9843915,23.1520273 34.5937625,23.1520273 Z" id="Shape"></path>
<path d="M48.3238642,26.539817 L53.7698961,26.539817 L53.7698961,14.7528655 C53.7698961,12.5795664 55.1505802,11.1349618 56.9659241,11.1349618 C58.7556998,11.1349618 59.9574064,12.3622365 59.9574064,14.2926375 L59.9574064,26.539817 L65.2372447,26.539817 L65.2372447,14.5483197 C65.2372447,12.5156459 66.4005989,11.1349618 68.3821363,11.1349618 C70.1207756,11.1349618 71.4247551,12.2216113 71.4247551,14.4076945 L71.4247551,26.539817 L76.8580028,26.539817 L76.8580028,13.3338291 C76.8580028,9.07671969 74.3267485,6.64773837 70.6704924,6.64773837 C67.7940672,6.64773837 65.5568475,8.11791128 64.7514485,10.367915 L64.5469027,10.367915 C63.9204812,8.09234305 61.9133756,6.64773837 59.2159279,6.64773837 C56.5696166,6.64773837 54.562511,8.05399071 53.7443278,10.367915 L53.5142138,10.367915 L53.5142138,6.90342061 L48.3238642,6.90342061 L48.3238642,26.539817 Z" id="Path"></path>
<path d="M81.1534097,33.9034657 L86.5994415,33.9034657 L86.5994415,23.3949254 L86.765635,23.3949254 C87.5198976,25.0312918 89.1690481,26.8594198 92.3395079,26.8594198 C96.8139472,26.8594198 100.30401,23.3182207 100.30401,16.747187 C100.30401,9.99717578 96.6605378,6.64773837 92.352292,6.64773837 C89.0667752,6.64773837 87.4943294,8.60370754 86.765635,10.2017216 L86.5227368,10.2017216 L86.5227368,6.90342061 L81.1534097,6.90342061 L81.1534097,33.9034657 Z M86.4843845,16.7216188 C86.4843845,13.2187721 87.9673415,10.9815524 90.6136527,10.9815524 C93.3111004,10.9815524 94.742921,13.321045 94.742921,16.7216188 C94.742921,20.1477609 93.2855322,22.5256058 90.6136527,22.5256058 C87.9929097,22.5256058 86.4843845,20.2244656 86.4843845,16.7216188 Z" id="Shape"></path>
<path d="M116.514226,18.1790076 C116.52701,20.8125347 114.72445,22.1932189 112.768481,22.1932189 C110.710239,22.1932189 109.380692,20.7486142 109.367907,18.4346899 L109.367907,6.90342061 L103.921876,6.90342061 L103.921876,19.4062824 C103.93466,23.9957787 106.619323,26.7954993 110.569614,26.7954993 C113.522744,26.7954993 115.644907,25.2741899 116.52701,22.9730497 L116.731556,22.9730497 L116.731556,26.539817 L121.960258,26.539817 L121.960258,6.90342061 L116.514226,6.90342061 L116.514226,18.1790076 Z" id="Path"></path>
<path d="M142.644914,12.5028618 C142.159118,8.88495801 139.24434,6.64773837 134.284105,6.64773837 C129.259949,6.64773837 125.948864,8.9744468 125.961648,12.758544 C125.948864,15.6988898 127.80256,17.6037226 131.637794,18.3707693 L135.038367,19.0483272 C136.751438,19.3934983 137.531269,20.0199198 137.556838,21.0042964 C137.531269,22.1676506 136.265642,22.9986179 134.360809,22.9986179 C132.417624,22.9986179 131.126429,22.1676506 130.794042,20.5696366 L125.437499,20.8508871 C125.948864,24.6094161 129.144892,26.9233404 134.348025,26.9233404 C139.436102,26.9233404 143.079574,24.3281656 143.092358,20.4545796 C143.079574,17.6165067 141.225878,15.9162197 137.416212,15.1363889 L133.862229,14.4204786 C132.034101,14.0241711 131.356543,13.3977496 131.369327,12.4517253 C131.356543,11.275587 132.686091,10.5085403 134.373594,10.5085403 C136.265642,10.5085403 137.390644,11.5440534 137.65911,12.8096805 L142.644914,12.5028618 Z" id="Path"></path>
<path d="M9.74149353,70.539817 C17.7187796,70.539817 22.551174,65.6051497 22.551174,57.4233179 C22.551174,49.2670542 17.7187796,44.3579551 9.8181982,44.3579551 L0.460228041,44.3579551 L0.460228041,70.539817 L9.74149353,70.539817 Z M5.99574864,65.7969114 L5.99574864,49.1008608 L9.52416362,49.1008608 C14.4332627,49.1008608 17.0284375,51.6065468 17.0284375,57.4233179 C17.0284375,63.2656572 14.4332627,65.7969114 9.51137951,65.7969114 L5.99574864,65.7969114 Z" id="Shape"></path>
<path d="M26.5397733,70.539817 L31.9858051,70.539817 L31.9858051,50.9034206 L26.5397733,50.9034206 L26.5397733,70.539817 Z M29.2755733,48.3721664 C30.8991556,48.3721664 32.2287033,47.1321075 32.2287033,45.6107981 C32.2287033,44.1022729 30.8991556,42.862214 29.2755733,42.862214 C27.6647752,42.862214 26.3352275,44.1022729 26.3352275,45.6107981 C26.3352275,47.1321075 27.6647752,48.3721664 29.2755733,48.3721664 Z" id="Shape"></path>
<path d="M52.6704824,56.5028618 C52.1846861,52.884958 49.2699086,50.6477384 44.309673,50.6477384 C39.2855169,50.6477384 35.9744318,52.9744468 35.9872159,56.758544 C35.9744318,59.6988898 37.8281281,61.6037226 41.6633618,62.3707693 L45.0639356,63.0483272 C46.7770067,63.3934983 47.5568375,64.0199198 47.5824057,65.0042964 C47.5568375,66.1676506 46.2912104,66.9986179 44.3863777,66.9986179 C42.4431926,66.9986179 41.1519973,66.1676506 40.8196104,64.5696366 L35.4630673,64.8508871 C35.9744318,68.6094161 39.1704599,70.9233404 44.3735936,70.9233404 C49.4616702,70.9233404 53.1051422,68.3281656 53.1179263,64.4545796 C53.1051422,61.6165067 51.251446,59.9162197 47.4417805,59.1363889 L43.8877973,58.4204786 C42.0596692,58.0241711 41.3821113,57.3977496 41.3948954,56.4517253 C41.3821113,55.275587 42.711659,54.5085403 44.3991618,54.5085403 C46.2912104,54.5085403 47.4162123,55.5440534 47.6846786,56.8096805 L52.6704824,56.5028618 Z" id="Path"></path>
<path d="M65.4289927,70.9233404 C70.6576946,70.9233404 73.9432114,67.8551534 74.1988937,63.3423618 L69.0596806,63.3423618 C68.7400777,65.4389562 67.3593936,66.6150946 65.4929132,66.6150946 C62.9488749,66.6150946 61.2997244,64.4801478 61.2997244,60.7216188 C61.2997244,57.0142263 62.961659,54.8920636 65.4929132,54.8920636 C67.4872347,54.8920636 68.765646,56.2088272 69.0596806,58.1647964 L74.1988937,58.1647964 C73.9687797,53.6264365 70.5298535,50.6477384 65.4034245,50.6477384 C59.4460281,50.6477384 55.7642038,54.7770066 55.7642038,60.7983235 C55.7642038,66.7685039 59.3821076,70.9233404 65.4289927,70.9233404 Z" id="Path"></path>
<path d="M86.573879,70.9233404 C92.5312753,70.9233404 96.2386679,66.8452086 96.2386679,60.7983235 C96.2386679,54.7130861 92.5312753,50.6477384 86.573879,50.6477384 C80.6164827,50.6477384 76.9090902,54.7130861 76.9090902,60.7983235 C76.9090902,66.8452086 80.6164827,70.9233404 86.573879,70.9233404 Z M86.5994473,66.7045833 C83.8508631,66.7045833 82.4446108,64.1861132 82.4446108,60.7599712 C82.4446108,57.3338291 83.8508631,54.8025748 86.5994473,54.8025748 C89.2968949,54.8025748 90.7031473,57.3338291 90.7031473,60.7599712 C90.7031473,64.1861132 89.2968949,66.7045833 86.5994473,66.7045833 Z" id="Shape"></path>
<polygon id="Path" points="117.447474 50.9034206 111.68184 50.9034206 107.616492 64.95316 107.411946 64.95316 103.333814 50.9034206 97.5809639 50.9034206 104.446032 70.539817 110.582406 70.539817"></polygon>
<path d="M128.531266,70.9233404 C133.389228,70.9233404 136.661961,68.5582796 137.429008,64.9148076 L132.392067,64.5824207 C131.842351,66.0781618 130.436098,66.8579927 128.620754,66.8579927 C125.897738,66.8579927 124.171883,65.0554329 124.171883,62.1278712 L124.171883,62.1150871 L137.544065,62.1150871 L137.544065,60.6193459 C137.544065,53.9460393 133.504285,50.6477384 128.313936,50.6477384 C122.535517,50.6477384 118.789772,54.7514384 118.789772,60.8111076 C118.789772,67.0369703 122.48438,70.9233404 128.531266,70.9233404 Z M124.171883,58.7400814 C124.28694,56.5028618 125.987227,54.7130861 128.403424,54.7130861 C130.768485,54.7130861 132.404852,56.4005889 132.417636,58.7400814 L124.171883,58.7400814 Z" id="Shape"></path>
<path d="M141.098012,70.539817 L146.544044,70.539817 L146.544044,59.4304235 C146.544044,57.0142263 148.308251,55.3522917 150.711664,55.3522917 C151.465927,55.3522917 152.50144,55.4801328 153.012805,55.6463263 L153.012805,50.8139318 C152.527008,50.6988748 151.84945,50.6221701 151.299734,50.6221701 C149.100866,50.6221701 147.298306,51.9005814 146.582396,54.3295627 L146.37785,54.3295627 L146.37785,50.9034206 L141.098012,50.9034206 L141.098012,70.539817 Z" id="Path"></path>
<path d="M159.788358,77.9034657 C163.840922,77.9034657 165.988653,75.8324395 167.100871,72.6619797 L174.732986,50.9289888 L168.967351,50.9034206 L164.863651,65.3238992 L164.659105,65.3238992 L160.593758,50.9034206 L154.866475,50.9034206 L161.910521,71.102318 L161.590918,71.9332853 C160.875008,73.7741974 159.507108,73.8636862 157.589491,73.275617 L156.362216,77.3409647 C157.142047,77.6733517 158.407674,77.9034657 159.788358,77.9034657 Z" id="Path"></path>
</g>
<path d="M8.62237334,54.4803304 L22.0385811,54.4803304 C24.7732697,54.4803304 27.2531559,55.5712696 29.0667763,57.3416846 L29.2258352,57.5008938 L29.2431052,57.4828584 C31.0316693,55.6665112 33.5051899,54.5265767 36.2450157,54.4817058 L36.4130893,54.4803304 L49.829297,54.4803304 L49.829297,84.1876475 L36.4130893,84.1876475 C34.0739722,84.1876475 32.1698344,86.0500154 32.1025754,88.3728516 L32.1007368,88.5 L26.3509335,88.5 C26.3509335,86.1608829 24.4885657,84.2567451 22.1657294,84.1894861 L22.0385811,84.1876475 L8.62237334,84.1876475 L8.62237334,54.4803304 Z M22.0385811,60.2301338 L14.3716975,60.2301338 L14.3721766,78.4378442 L22.0385811,78.4378442 C24.7732697,78.4378442 27.2531559,79.5287834 29.0667763,81.2991984 L29.2258352,81.4584076 L29.2431052,81.4403721 C31.0316693,79.624025 33.5051899,78.4840904 36.2450157,78.4392196 L36.4130893,78.4378442 L44.0794937,78.4378442 L44.0790146,60.2301338 L36.4130893,60.2301338 C34.0739722,60.2301338 32.1698344,62.0925016 32.1025754,64.4153378 L32.1007368,64.5424862 L32.1025754,69.333989 L26.3509335,69.333989 L26.3509335,64.5424862 C26.3509335,62.2033691 24.4885657,60.2992313 22.1657294,60.2319723 L22.0385811,60.2301338 Z M29.2571998,1.5 C39.8012266,1.5 48.3487587,10.0476226 48.3487587,20.6147309 L48.3460395,20.9499226 C48.2598801,26.442586 46.1953289,31.7214043 42.5297957,35.8159045 L29.2482385,50.6517649 L15.9667694,35.8160029 C12.2216354,31.6325866 10.1359784,26.2237971 10.1029948,20.5596817 L10.1062529,20.2686004 C10.3037238,9.85320178 18.8087296,1.5 29.2393393,1.5 Z M29.2571998,7.38670338 L29.0230917,7.38843417 C21.9004069,7.5025218 16.1272252,13.2424725 15.9922538,20.3563626 L15.9894734,20.574295 C16.0141071,24.7521693 17.5660098,28.7767595 20.3527016,31.8895701 L29.2479714,41.826006 L38.1438635,31.8894716 C40.7976788,28.9250878 42.3206799,25.1241482 42.4525137,21.1769777 L42.4597887,20.8806765 L42.4621458,20.5916494 C42.4621458,13.2987591 36.5500901,7.38670338 29.2571998,7.38670338 Z M29.2258352,15.4562227 C30.8595313,15.4562227 32.3385655,16.1184089 33.4091757,17.1890191 C34.4797859,18.2596293 35.1419721,19.7386635 35.1419721,21.3723596 C35.1419721,23.0060557 34.4797859,24.4850899 33.4091757,25.5557001 C32.3385655,26.6263103 30.8595313,27.2884965 29.2258352,27.2884965 C27.5921391,27.2884965 26.1131049,26.6263103 25.0424947,25.5557001 C23.9718845,24.4850899 23.3096983,23.0060557 23.3096983,21.3723596 C23.3096983,19.7386635 23.9718845,18.2596293 25.0424947,17.1890191 C26.1131049,16.1184089 27.5921391,15.4562227 29.2258352,15.4562227 Z" id="Combined-Shape" fill="#FFFFFF" fill-rule="nonzero"></path>
</g>
</svg>