<?xml version="1.0" encoding="UTF-8"?>
<svg width="230px" height="48px" viewBox="0 0 230 48" version="1.1" xmlns="http://www.w3.org/2000/svg" xmlns:xlink="http://www.w3.org/1999/xlink">
<title>Logo-Centered</title>
<g id="Pages" stroke="none" stroke-width="1" fill="none" fill-rule="evenodd" opacity="0.85">
<g id="Dashboard" transform="translate(-604.000000, -8.000000)" fill="#FFFFFF" fill-rule="nonzero">
<g id="Logo-Centered" style="mix-blend-mode: normal;" transform="translate(604.000000, 8.000000)">
<g id="Campus-Discovery" transform="translate(48.517275, 15.902012)">
<path d="M12.9867284,5.88245496 C12.585077,2.54624249 10.0624244,0.627743994 6.72237594,0.627743994 C2.91021097,0.627743994 0,3.32210586 0,8.04781907 C0,12.7594257 2.86088536,15.4678942 6.72237594,15.4678942 C10.4217967,15.4678942 12.6555421,13.0062913 12.9867284,10.347196 L9.9003545,10.3330893 C9.61144736,11.8777628 8.39944667,12.766479 6.77170155,12.766479 C4.58023518,12.766479 3.09342038,11.1371659 3.09342038,8.04781907 C3.09342038,5.04311186 4.55909563,3.32915916 6.7928411,3.32915916 C8.46286531,3.32915916 9.66781949,4.29546171 9.9003545,5.88245496 L12.9867284,5.88245496 Z" id="Path"></path>
<path d="M18.2081716,15.4749475 C19.8077306,15.4749475 20.8435684,14.7766704 21.3720571,13.7680481 L21.4566153,13.7680481 L21.4566153,15.2704017 L24.3034076,15.2704017 L24.3034076,7.96317943 C24.3034076,5.38167042 22.1189878,4.29546171 19.7090794,4.29546171 C17.1159616,4.29546171 15.4107048,5.5368431 14.9949604,7.51176802 L17.7712876,7.73747373 C17.9756365,7.01803679 18.6168695,6.48903904 19.6949864,6.48903904 C20.7167311,6.48903904 21.3015919,7.00393018 21.3015919,7.8926464 L21.3015919,7.93496622 C21.3015919,8.63324325 20.5617078,8.72493619 18.6802881,8.90832208 C16.5381474,9.10581457 14.6144486,9.82525151 14.6144486,12.2445345 C14.6144486,14.3887387 16.1435425,15.4749475 18.2081716,15.4749475 Z M19.0678465,13.4012763 C18.1447529,13.4012763 17.4823804,12.9710248 17.4823804,12.1457883 C17.4823804,11.2993919 18.1799855,10.883247 19.2369628,10.7351276 C19.8922888,10.6434347 20.9633592,10.488262 21.3227315,10.2484497 L21.3227315,11.3981381 C21.3227315,12.53372 20.3855449,13.4012763 19.0678465,13.4012763 Z" id="Shape"></path>
<path d="M26.6357851,15.2704017 L29.6376007,15.2704017 L29.6376007,8.76725601 C29.6376007,7.56819445 30.3986244,6.77117118 31.3992297,6.77117118 C32.3857419,6.77117118 33.0481143,7.44828829 33.0481143,8.51333709 L33.0481143,15.2704017 L35.9583253,15.2704017 L35.9583253,8.65440316 C35.9583253,7.53292793 36.5995582,6.77117118 37.6917682,6.77117118 C38.6500943,6.77117118 39.3688389,7.37070196 39.3688389,8.57681682 L39.3688389,15.2704017 L42.363608,15.2704017 L42.363608,7.98433934 C42.363608,5.63558934 40.9683979,4.29546171 38.9530945,4.29546171 C37.3676284,4.29546171 36.1344882,5.10659159 35.6905577,6.34797298 L35.5778135,6.34797298 C35.2325342,5.09248499 34.1262312,4.29546171 32.6394164,4.29546171 C31.1807877,4.29546171 30.0744847,5.07132508 29.6235077,6.34797298 L29.4966704,6.34797298 L29.4966704,4.43652778 L26.6357851,4.43652778 L26.6357851,15.2704017 Z" id="Path"></path>
<path d="M44.7312071,19.3331044 L47.7330228,19.3331044 L47.7330228,13.535289 L47.8246275,13.535289 C48.2403719,14.4381119 49.1493724,15.4467342 50.8969083,15.4467342 C53.3631888,15.4467342 55.2868876,13.4929692 55.2868876,9.86757133 C55.2868876,6.14342718 53.2786306,4.29546171 50.9039548,4.29546171 C49.0930003,4.29546171 48.2262789,5.37461712 47.8246275,6.25628003 L47.6907437,6.25628003 L47.6907437,4.43652778 L44.7312071,4.43652778 L44.7312071,19.3331044 Z M47.6696041,9.85346472 C47.6696041,7.92085961 48.4869999,6.68653154 49.9456287,6.68653154 C51.4324435,6.68653154 52.2216532,7.97728604 52.2216532,9.85346472 C52.2216532,11.74375 51.4183505,13.0556644 49.9456287,13.0556644 C48.501093,13.0556644 47.6696041,11.7860698 47.6696041,9.85346472 Z" id="Shape"></path>
<path d="M64.2218485,10.6575413 C64.228895,12.1105218 63.2353363,12.8722785 62.1572194,12.8722785 C61.0227304,12.8722785 60.2898927,12.0752553 60.2828462,10.7986074 L60.2828462,4.43652778 L57.2810305,4.43652778 L57.2810305,11.3346584 C57.2880771,13.8667943 58.7678454,15.4114677 60.9452187,15.4114677 C62.5729638,15.4114677 63.7426854,14.5721246 64.228895,13.30253 L64.3416392,13.30253 L64.3416392,15.2704017 L67.2236641,15.2704017 L67.2236641,4.43652778 L64.2218485,4.43652778 L64.2218485,10.6575413 Z" id="Path"></path>
<path d="M78.6249059,7.52587463 C78.3571383,5.52978979 76.7505327,4.29546171 74.0164847,4.29546171 C71.247204,4.29546171 69.4221564,5.57916292 69.429203,7.6669407 C69.4221564,9.28920046 70.4439012,10.3401426 72.5578559,10.7633408 L74.4322291,11.1371659 C75.3764622,11.3276051 75.8062996,11.673217 75.8203927,12.2163213 C75.8062996,12.8581719 75.1086946,13.3166366 74.0587637,13.3166366 C72.9876934,13.3166366 72.2759953,12.8581719 72.0927859,11.976509 L69.1402958,12.1316817 C69.4221564,14.2053529 71.1837854,15.4820008 74.0517172,15.4820008 C76.8562305,15.4820008 78.8644874,14.0501802 78.8715339,11.9130293 C78.8644874,10.347196 77.8427427,9.40910661 75.742881,8.97885511 L73.7839496,8.58387013 C72.7762979,8.36521772 72.4028326,8.01960586 72.4098791,7.49766142 C72.4028326,6.84875751 73.1356702,6.42555931 74.0658103,6.42555931 C75.1086946,6.42555931 75.728788,6.99687688 75.8767648,7.69515391 L78.6249059,7.52587463 Z" id="Path"></path>
<path d="M90.5405376,15.2704017 C94.9375634,15.2704017 97.6011463,12.5478266 97.6011463,8.03371247 C97.6011463,3.53370496 94.9375634,0.825236487 90.5828167,0.825236487 L85.4247672,0.825236487 L85.4247672,15.2704017 L90.5405376,15.2704017 Z M88.4759085,12.6536261 L88.4759085,3.44201201 L90.4207468,3.44201201 C93.1266088,3.44201201 94.5570515,4.82445946 94.5570515,8.03371247 C94.5570515,11.2570721 93.1266088,12.6536261 90.4137003,12.6536261 L88.4759085,12.6536261 Z" id="Shape"></path>
<path d="M99.7996351,15.2704017 L102.801451,15.2704017 L102.801451,4.43652778 L99.7996351,4.43652778 L99.7996351,15.2704017 Z M101.307589,3.03997373 C102.202497,3.03997373 102.935335,2.3558033 102.935335,1.51646021 C102.935335,0.684170421 102.202497,0 101.307589,0 C100.419728,0 99.6868908,0.684170421 99.6868908,1.51646021 C99.6868908,2.3558033 100.419728,3.03997373 101.307589,3.03997373 Z" id="Shape"></path>
<path d="M114.202704,7.52587463 C113.934936,5.52978979 112.328331,4.29546171 109.594283,4.29546171 C106.825002,4.29546171 104.999955,5.57916292 105.007001,7.6669407 C104.999955,9.28920046 106.021699,10.3401426 108.135654,10.7633408 L110.010027,11.1371659 C110.95426,11.3276051 111.384098,11.673217 111.398191,12.2163213 C111.384098,12.8581719 110.686493,13.3166366 109.636562,13.3166366 C108.565492,13.3166366 107.853793,12.8581719 107.670584,11.976509 L104.718094,12.1316817 C104.999955,14.2053529 106.761584,15.4820008 109.629515,15.4820008 C112.434029,15.4820008 114.442286,14.0501802 114.449332,11.9130293 C114.442286,10.347196 113.420541,9.40910661 111.320679,8.97885511 L109.361748,8.58387013 C108.354096,8.36521772 107.980631,8.01960586 107.987677,7.49766142 C107.980631,6.84875751 108.713468,6.42555931 109.643608,6.42555931 C110.686493,6.42555931 111.306586,6.99687688 111.454563,7.69515391 L114.202704,7.52587463 Z" id="Path"></path>
<path d="M121.235108,15.4820008 C124.117133,15.4820008 125.928088,13.789208 126.069018,11.2993919 L123.236319,11.2993919 C123.060156,12.4561336 122.299132,13.1050375 121.270341,13.1050375 C119.868084,13.1050375 118.959084,11.9271359 118.959084,9.85346472 C118.959084,7.80800676 119.875131,6.63715841 121.270341,6.63715841 C122.369597,6.63715841 123.074249,7.36364865 123.236319,8.44280406 L126.069018,8.44280406 C125.942181,5.93888138 124.046668,4.29546171 121.221015,4.29546171 C117.937339,4.29546171 115.907942,6.57367868 115.907942,9.89578454 C115.907942,13.1896772 117.902106,15.4820008 121.235108,15.4820008 Z" id="Path"></path>
<path d="M132.890026,15.4820008 C136.173702,15.4820008 138.217191,13.231997 138.217191,9.89578454 C138.217191,6.53841217 136.173702,4.29546171 132.890026,4.29546171 C129.606349,4.29546171 127.56286,6.53841217 127.56286,9.89578454 C127.56286,13.231997 129.606349,15.4820008 132.890026,15.4820008 Z M132.904119,13.1544107 C131.389118,13.1544107 130.614001,11.7649099 130.614001,9.87462463 C130.614001,7.98433934 131.389118,6.58778529 132.904119,6.58778529 C134.390933,6.58778529 135.16605,7.98433934 135.16605,9.87462463 C135.16605,11.7649099 134.390933,13.1544107 132.904119,13.1544107 Z" id="Shape"></path>
<polygon id="Path" points="149.907341 4.43652778 146.729363 4.43652778 144.488571 12.1881081 144.375826 12.1881081 142.127988 4.43652778 138.957056 4.43652778 142.741035 15.2704017 146.123362 15.2704017"></polygon>
<path d="M156.016651,15.4820008 C158.694327,15.4820008 160.498235,14.1771396 160.921026,12.1669482 L158.144699,11.9835623 C157.841699,12.8087988 157.066582,13.2390503 156.065977,13.2390503 C154.565069,13.2390503 153.61379,12.2445345 153.61379,10.6293281 L153.61379,10.6222748 L160.984445,10.6222748 L160.984445,9.79703829 C160.984445,6.11521397 158.757746,4.29546171 155.896861,4.29546171 C152.711836,4.29546171 150.647207,6.55957208 150.647207,9.90283784 C150.647207,13.3377966 152.68365,15.4820008 156.016651,15.4820008 Z M153.61379,8.76020271 C153.677208,7.52587463 154.614395,6.53841217 155.946186,6.53841217 C157.249792,6.53841217 158.151746,7.4694482 158.158792,8.76020271 L153.61379,8.76020271 Z" id="Shape"></path>
<path d="M162.943357,15.2704017 L165.945172,15.2704017 L165.945172,9.14108109 C165.945172,7.80800676 166.917591,6.89107733 168.242336,6.89107733 C168.658081,6.89107733 169.228849,6.96161036 169.510709,7.05330331 L169.510709,4.38715466 C169.242942,4.32367493 168.869476,4.28135511 168.566476,4.28135511 C167.354475,4.28135511 166.360917,4.98668544 165.966312,6.32681307 L165.853568,6.32681307 L165.853568,4.43652778 L162.943357,4.43652778 L162.943357,15.2704017 Z" id="Path"></path>
<path d="M173.245348,19.3331044 C175.479094,19.3331044 176.662908,18.1904692 177.275955,16.44125 L181.482725,4.45063439 L178.304747,4.43652778 L176.042815,12.3926539 L175.930071,12.3926539 L173.689279,4.43652778 L170.53244,4.43652778 L174.41507,15.580747 L174.238907,16.0392117 C173.844302,17.0548874 173.090325,17.1042605 172.033348,16.7798086 L171.356882,19.022759 C171.78672,19.2061449 172.484325,19.3331044 173.245348,19.3331044 Z" id="Path"></path>
</g>
<path d="M0,29.2305271 L7.39492238,29.2305271 C8.90226415,29.2305271 10.2691605,29.8324246 11.2688157,30.8092053 L11.3564879,30.8970448 L11.3660071,30.8870943 C12.3518514,29.8849717 13.7152391,29.2560423 15.2254125,29.231286 L15.3180535,29.2305271 L22.7129759,29.2305271 L22.7129759,45.620771 L15.3180535,45.620771 C14.0287481,45.620771 12.9792003,46.6482843 12.9421276,47.9298492 L12.9411142,48 L9.77186172,48 C9.77186172,46.7094526 8.74533724,45.6588938 7.46500571,45.6217854 L7.39492238,45.620771 L0,45.620771 L0,29.2305271 Z M7.39492238,32.4028324 L3.16898834,32.4028324 L3.16925245,42.4484658 L7.39492238,42.4484658 C8.90226415,42.4484658 10.2691605,43.0503632 11.2688157,44.0271439 L11.3564879,44.1149835 L11.3660071,44.1050329 C12.3518514,43.1029104 13.7152391,42.4739809 15.2254125,42.4492246 L15.3180535,42.4484658 L19.5437234,42.4484658 L19.5434593,32.4028324 L15.3180535,32.4028324 C14.0287481,32.4028324 12.9792003,33.4303457 12.9421276,34.7119105 L12.9411142,34.7820614 L12.9421276,37.4256491 L9.77186172,37.4256491 L9.77186172,34.7820614 C9.77186172,33.491514 8.74533724,32.4409552 7.46500571,32.4038468 L7.39492238,32.4028324 Z M11.3737759,0 C17.1855717,0 21.8969132,4.7159297 21.8969132,10.5460584 L21.8954144,10.7309918 C21.8479239,13.7614268 20.7099574,16.6738782 18.6895404,18.9329128 L11.3688365,27.1182151 L4.0481811,18.9329671 C1.98388876,16.6248753 0.834288828,13.6407157 0.816108465,10.5156864 L0.817904298,10.3550899 C0.926748935,4.60866305 5.61465026,0 11.3639313,0 Z M11.3737759,3.24783635 L11.2447371,3.24879127 C7.31876173,3.31173616 4.13662328,6.47860549 4.06222794,10.4035104 L4.06069541,10.523749 C4.07427334,12.8287831 4.92967152,15.0492466 6.4656771,16.7666593 L11.3686893,22.2488309 L16.2720444,16.766605 C17.7348094,15.1310829 18.5742772,13.0340128 18.6469431,10.8562635 L18.650953,10.692787 L18.6522523,10.5333238 C18.6522523,6.50966018 15.3935674,3.24783635 11.3737759,3.24783635 Z M11.3564879,7.69998495 C12.2569701,7.69998495 13.0722037,8.06532904 13.6623168,8.65601053 C14.2524298,9.24669202 14.6174223,10.0627109 14.6174223,10.9640605 C14.6174223,11.86541 14.2524298,12.6814289 13.6623168,13.2721104 C13.0722037,13.8627919 12.2569701,14.228136 11.3564879,14.228136 C10.4560058,14.228136 9.64077217,13.8627919 9.05065912,13.2721104 C8.46054606,12.6814289 8.09555355,11.86541 8.09555355,10.9640605 C8.09555355,10.0627109 8.46054606,9.24669202 9.05065912,8.65601053 C9.64077217,8.06532904 10.4560058,7.69998495 11.3564879,7.69998495 Z" id="Combined-Shape"></path>
</g>
</g>
</g>
</svg>